<?xml version="1.0" standalone="no"?>
<!DOCTYPE svg PUBLIC "-//W3C//DTD SVG 20010904//EN"
 "http://www.w3.org/TR/2001/REC-SVG-20010904/DTD/svg10.dtd">
<svg version="1.0" xmlns="http://www.w3.org/2000/svg"
 width="200.000000pt" height="96.000000pt" viewBox="0 0 200.000000 96.000000"
 preserveAspectRatio="xMidYMid meet">
<metadata>
Created by potrace 1.10, written by Peter Selinger 2001-2011
</metadata>
<g transform="translate(0.000000,96.000000) scale(0.100000,-0.100000)"
fill="#000000" stroke="none">
<path d="M271 926 c3 -3 50 -19 105 -34 153 -45 339 -132 408 -191 15 -13 43
-16 170 -14 109 1 139 -1 108 -7 -49 -10 -162 -59 -162 -70 0 -11 66 -41 103
-47 27 -4 57 8 161 62 195 102 337 144 489 146 50 0 66 3 52 9 -29 12 -263 12
-348 -1 -40 -6 -98 -17 -129 -26 -52 -14 -61 -14 -91 0 -28 14 -39 14 -77 3
-42 -12 -47 -11 -114 19 -120 55 -305 101 -516 130 -63 9 -126 18 -140 21 -14
3 -22 3 -19 0z m386 -86 c48 -12 95 -24 103 -27 18 -8 17 -7 60 -17 19 -5 40
-11 45 -14 6 -4 15 -7 21 -8 24 -4 108 -46 99 -50 -5 -2 -44 -7 -85 -12 l-74
-9 -56 36 c-30 20 -91 55 -135 78 -44 23 -77 43 -73 43 3 0 46 -9 95 -20z
m718 -88 c-6 -5 -30 -17 -55 -26 -25 -10 -96 -44 -158 -77 -62 -32 -126 -59
-142 -59 -35 0 -60 9 -60 21 0 9 39 28 65 33 6 1 16 5 23 9 6 5 16 6 21 3 4
-3 17 1 27 9 17 12 17 15 4 29 -9 9 -28 17 -43 18 -15 1 -23 6 -18 11 15 15
74 16 102 1 22 -11 35 -11 80 1 30 7 74 16 98 19 24 3 46 8 49 11 3 3 8 5 11
5 3 0 1 -4 -4 -8z"/>
<path d="M90 255 c0 -118 -1 -125 -20 -125 -11 0 -20 -7 -20 -16 0 -11 6 -14
23 -9 12 4 25 10 29 14 3 3 8 63 10 134 2 97 0 127 -9 127 -10 0 -13 -32 -13
-125z"/>
<path d="M175 255 l0 -125 61 0 c84 0 106 18 112 93 10 122 -17 157 -120 157
l-53 0 0 -125z m135 78 c10 -9 15 -34 15 -79 0 -57 -3 -68 -24 -85 -14 -11
-39 -19 -62 -19 l-39 0 0 104 0 104 48 -5 c26 -3 54 -12 62 -20z"/>
<path d="M410 255 l0 -125 75 0 c43 0 75 4 75 10 0 6 -27 10 -62 10 l-63 0 1
47 1 47 52 -3 c41 -2 51 1 51 13 0 13 -11 16 -52 16 l-53 0 1 42 1 43 62 -3
c51 -3 61 -1 61 12 0 13 -13 16 -75 16 l-75 0 0 -125z"/>
<path d="M610 255 l0 -125 59 0 c49 0 65 4 88 24 26 23 28 29 28 101 0 72 -2
78 -28 101 -23 20 -39 24 -88 24 l-59 0 0 -125z m138 77 c7 -9 12 -44 12 -79
0 -79 -19 -103 -82 -103 l-43 0 2 102 c1 57 2 104 3 104 0 1 21 -1 48 -3 26
-3 53 -12 60 -21z"/>
<path d="M840 255 l0 -125 75 0 c43 0 75 4 75 10 0 6 -27 10 -60 10 l-60 0 0
48 0 47 50 -3 c41 -3 50 -1 50 12 0 13 -11 16 -50 16 l-50 0 0 43 0 43 60 -4
c50 -4 60 -2 60 12 0 13 -13 16 -75 16 l-75 0 0 -125z"/>
<path d="M1023 367 c2 -7 17 -63 33 -125 l29 -112 31 0 32 0 26 108 c15 59 29
115 32 125 3 10 0 17 -8 17 -9 0 -23 -38 -42 -115 -16 -67 -33 -115 -40 -115
-7 0 -24 48 -40 115 -20 83 -32 115 -43 115 -8 0 -13 -6 -10 -13z"/>
<path d="M1330 360 c-26 -26 -33 -59 -28 -132 5 -74 28 -98 93 -98 65 0 88 24
93 98 5 73 -2 106 -28 132 -27 27 -103 27 -130 0z m107 -15 c40 -28 38 -173
-3 -189 -20 -8 -58 -8 -78 0 -22 8 -39 79 -31 131 10 65 63 93 112 58z"/>
<path d="M1545 256 c0 -94 3 -126 13 -126 8 0 12 17 12 50 l0 50 38 0 c35 0
38 -3 59 -50 12 -29 28 -50 37 -50 13 0 11 9 -9 47 -23 47 -23 48 -4 66 24 23
26 98 3 118 -9 7 -46 15 -83 17 l-66 4 0 -126z m133 81 c15 -12 16 -59 0 -75
-7 -7 -34 -12 -60 -12 l-48 0 0 54 0 54 48 -6 c26 -2 53 -9 60 -15z"/>
<path d="M1790 360 c-26 -26 -33 -59 -28 -132 6 -80 26 -98 109 -98 l59 0 0
65 0 65 -33 0 c-23 0 -34 -5 -34 -15 0 -9 10 -15 24 -15 20 0 23 -5 23 -40 0
-40 0 -40 -39 -40 -22 0 -46 3 -55 6 -22 8 -39 79 -31 131 8 57 38 78 100 70
44 -6 70 5 39 17 -37 14 -114 6 -134 -14z"/>
<path d="M1220 150 c0 -13 7 -20 19 -20 14 0 18 5 14 20 -3 11 -12 20 -19 20
-8 0 -14 -9 -14 -20z"/>
</g>
</svg>
