<svg width="200" height="96" xmlns="http://www.w3.org/2000/svg" preserveAspectRatio="xMidYMid meet" version="1.0">
 <metadata>Created by potrace 1.10, written by Peter Selinger 2001-2011</metadata>

 <g>
  <title>Layer 1</title>
  <path id="svg_2" d="m27.1,3.4c0.3,0.3 5,1.9 10.5,3.4c15.3,4.5 33.9,13.2 40.8,19.1c1.5,1.3 4.3,1.6 17,1.4c10.9,-0.1 13.9,0.1 10.8,0.7c-4.9,1 -16.2,5.9 -16.2,7c0,1.1 6.6,4.1 10.3,4.7c2.7,0.4 5.7,-0.8 16.1,-6.2c19.5,-10.2 33.7,-14.4 48.9,-14.6c5,0 6.6,-0.3 5.2,-0.9c-2.9,-1.2 -26.3,-1.2 -34.8,0.1c-4,0.6 -9.8,1.7 -12.9,2.6c-5.2,1.4 -6.1,1.4 -9.1,0c-2.8,-1.4 -3.9,-1.4 -7.7,-0.3c-4.2,1.2 -4.7,1.1 -11.4,-1.9c-12,-5.5 -30.5,-10.1 -51.6,-13c-6.3,-0.9 -12.6,-1.8 -14,-2.1c-1.4,-0.3 -2.2,-0.3 -1.9,0zm38.6,8.6c4.8,1.2 9.5,2.4 10.3,2.7c1.8,0.8 1.7,0.7 6,1.7c1.9,0.5 4,1.1 4.5,1.4c0.6,0.4 1.5,0.7 2.1,0.8c2.4,0.4 10.8,4.6 9.9,5c-0.5,0.2 -4.4,0.7 -8.5,1.2l-7.4,0.9l-5.6,-3.6c-3,-2 -9.1,-5.5 -13.5,-7.8c-4.4,-2.3 -7.7,-4.3 -7.3,-4.3c0.3,0 4.6,0.9 9.5,2zm71.8,8.8c-0.6,0.5 -3,1.7 -5.5,2.6c-2.5,1 -9.6,4.4 -15.8,7.7c-6.2,3.2 -12.6,5.9 -14.2,5.9c-3.5,0 -6,-0.9 -6,-2.1c0,-0.9 3.9,-2.8 6.5,-3.3c0.6,-0.1 1.6,-0.5 2.3,-0.9c0.6,-0.5 1.6,-0.6 2.1,-0.3c0.4,0.3 1.7,-0.1 2.7,-0.9c1.7,-1.2 1.7,-1.5 0.4,-2.9c-0.9,-0.9 -2.8,-1.7 -4.3,-1.8c-1.5,-0.1 -2.3,-0.6 -1.8,-1.1c1.5,-1.5 7.4,-1.6 10.2,-0.1c2.2,1.1 3.5,1.1 8,-0.1c3,-0.7 7.4,-1.6 9.8,-1.9c2.4,-0.3 4.6,-0.8 4.9,-1.1c0.3,-0.3 0.8,-0.5 1.1,-0.5c0.3,0 0.1,0.4 -0.4,0.8z"/>
  <path id="svg_3" d="m9,70.5c0,11.8 -0.1,12.5 -2,12.5c-1.1,0 -5.2307,-2.5307 -5.2307,-1.6307c0,1.1 3.8307,4.6307 5.5307,4.1307c1.2,-0.4 2.5,-1 2.9,-1.4c0.3,-0.3 0.8,-6.3 1,-13.4c0.2,-9.7 0,-12.7 -0.9,-12.7c-1,0 -1.3,3.2 -1.3,12.5z"/>
  <path id="svg_4" d="m17.5,70.5l0,12.5l6.1,0c8.4,0 10.6,-1.8 11.2,-9.3c1,-12.2 -1.7,-15.7 -12,-15.7l-5.3,0l0,12.5zm13.5,-7.8c1,0.9 1.5,3.4 1.5,7.9c0,5.7 -0.3,6.8 -2.4,8.5c-1.4,1.1 -3.9,1.9 -6.2,1.9l-3.9,0l0,-10.4l0,-10.4l4.8,0.5c2.6,0.3 5.4,1.2 6.2,2z"/>
  <path id="svg_5" d="m41,70.5l0,12.5l7.5,0c4.3,0 7.5,-0.4 7.5,-1c0,-0.6 -2.7,-1 -6.2,-1l-6.3,0l0.1,-4.7l0.1,-4.7l5.2,0.3c4.1,0.2 5.1,-0.1 5.1,-1.3c0,-1.3 -1.1,-1.6 -5.2,-1.6l-5.3,0l0.1,-4.2l0.1,-4.3l6.2,0.3c5.1,0.3 6.1,0.1 6.1,-1.2c0,-1.3 -1.3,-1.6 -7.5,-1.6l-7.5,0l0,12.5z"/>
  <path id="svg_6" d="m61,70.5l0,12.5l5.9,0c4.9,0 6.5,-0.4 8.8,-2.4c2.6,-2.3 2.8,-2.9 2.8,-10.1c0,-7.2 -0.2,-7.8 -2.8,-10.1c-2.3,-2 -3.9,-2.4 -8.8,-2.4l-5.9,0l0,12.5zm13.8,-7.7c0.7,0.9 1.2,4.4 1.2,7.9c0,7.9 -1.9,10.3 -8.2,10.3l-4.3,0l0.2,-10.2c0.1,-5.7 0.2,-10.4 0.3,-10.4c0,-0.1 2.1,0.1 4.8,0.3c2.6,0.3 5.3,1.2 6,2.1z"/>
  <path id="svg_7" d="m84,70.5l0,12.5l7.5,0c4.3,0 7.5,-0.4 7.5,-1c0,-0.6 -2.7,-1 -6,-1l-6,0l0,-4.8l0,-4.7l5,0.3c4.1,0.3 5,0.1 5,-1.2c0,-1.3 -1.1,-1.6 -5,-1.6l-5,0l0,-4.3l0,-4.3l6,0.4c5,0.4 6,0.2 6,-1.2c0,-1.3 -1.3,-1.6 -7.5,-1.6l-7.5,0l0,12.5z"/>
  <path id="svg_8" d="m102.3,59.3c0.2,0.7 1.7,6.3 3.3,12.5l2.9,11.2l3.1,0l3.2,0l2.6,-10.8c1.5,-5.9 2.9,-11.5 3.2,-12.5c0.3,-1 0,-1.7 -0.8,-1.7c-0.9,0 -2.3,3.8 -4.2,11.5c-1.6,6.7 -3.3,11.5 -4,11.5c-0.7,0 -2.4,-4.8 -4,-11.5c-2,-8.3 -3.2,-11.5 -4.3,-11.5c-0.8,0 -1.3,0.6 -1,1.3z"/>
  <path id="svg_9" d="m133,60c-2.6,2.6 -3.3,5.9 -2.8,13.2c0.5,7.4 2.8,9.8 9.3,9.8c6.5,0 8.8,-2.4 9.3,-9.8c0.5,-7.3 -0.2,-10.6 -2.8,-13.2c-2.7,-2.7 -10.3,-2.7 -13,0zm10.7,1.5c4,2.8 3.8,17.3 -0.3,18.9c-2,0.8 -5.8,0.8 -7.8,0c-2.2,-0.8 -3.9,-7.9 -3.1,-13.1c1,-6.5 6.3,-9.3 11.2,-5.8z"/>
  <path id="svg_10" d="m154.5,70.4c0,9.4 0.3,12.6 1.3,12.6c0.8,0 1.2,-1.7 1.2,-5l0,-5l3.8,0c3.5,0 3.8,0.3 5.9,5c1.2,2.9 2.8,5 3.7,5c1.3,0 1.1,-0.9 -0.9,-4.7c-2.3,-4.7 -2.3,-4.8 -0.4,-6.6c2.4,-2.3 2.6,-9.8 0.3,-11.8c-0.9,-0.7 -4.6,-1.5 -8.3,-1.7l-6.6,-0.4l0,12.6zm13.3,-8.1c1.5,1.2 1.6,5.9 0,7.5c-0.7,0.7 -3.4,1.2 -6,1.2l-4.8,0l0,-5.4l0,-5.4l4.8,0.6c2.6,0.2 5.3,0.9 6,1.5z"/>
  <path id="svg_11" d="m179,60c-2.6,2.6 -3.3,5.9 -2.8,13.2c0.6,8 2.6,9.8 10.9,9.8l5.9,0l0,-6.5l0,-6.5l-3.3,0c-2.3,0 -3.4,0.5 -3.4,1.5c0,0.9 1,1.5 2.4,1.5c2,0 2.3,0.5 2.3,4c0,4 0,4 -3.9,4c-2.2,0 -4.6,-0.3 -5.5,-0.6c-2.2,-0.8 -3.9,-7.9 -3.1,-13.1c0.8,-5.7 3.8,-7.8 10,-7c4.4,0.6 7,-0.5 3.9,-1.7c-3.7,-1.4 -11.4,-0.6 -13.4,1.4z"/>
  <path id="svg_12" d="m122,81c0,1.3 0.7,2 1.9,2c1.4,0 1.8,-0.5 1.4,-2c-0.3,-1.1 -1.2,-2 -1.9,-2c-0.8,0 -1.4,0.9 -1.4,2z"/>
 </g>
</svg>